<svg width="400" height="400" viewBox="0 0 400 400" xmlns="http://www.w3.org/2000/svg">
  <path d="M-100 200 Q 100 -50 200 200 T 500 200" fill="none" stroke="rgba(255,255,255,0.15)" stroke-width="2"/>
  <path d="M-100 180 Q 100 -70 200 180 T 500 180" fill="none" stroke="rgba(255,255,255,0.1)" stroke-width="2"/>
  <path d="M-100 220 Q 100 -30 200 220 T 500 220" fill="none" stroke="rgba(255,255,255,0.1)" stroke-width="2"/>
  <path d="M-100 150 Q 100 -100 200 150 T 500 150" fill="none" stroke="rgba(255,255,255,0.08)" stroke-width="2"/>
  <path d="M-100 250 Q 100 0 200 250 T 500 250" fill="none" stroke="rgba(255,255,255,0.08)" stroke-width="2"/>
  <path d="M-100 100 Q 150 100 300 100 T 500 100" fill="none" stroke="rgba(255,255,255,0.05)" stroke-width="2"/>
  <path d="M-100 300 Q 150 300 300 300 T 500 300" fill="none" stroke="rgba(255,255,255,0.05)" stroke-width="2"/>
  <path d="M0 0 Q 200 200 400 0" fill="none" stroke="rgba(255,255,255,0.08)" stroke-width="3"/>
  <path d="M0 400 Q 200 200 400 400" fill="none" stroke="rgba(255,255,255,0.08)" stroke-width="3"/>
</svg>
